<svg xmlns="http://www.w3.org/2000/svg" width="100" height="100" viewBox="0 0 100 100"><defs><style>.a{fill:#ff9e1b;}.b{fill:#1c1000;}</style></defs><circle class="a" cx="50" cy="50" r="50"/><g transform="translate(-1 -6)"><g transform="translate(21 26)"><g transform="translate(0 0)"><path class="b" d="M113.149,278.526l-2.705-3.193a19.054,19.054,0,0,0,1.363-3.317l4.161-.328a1.3,1.3,0,0,0,1.2-1.3V262.38a1.3,1.3,0,0,0-1.194-1.3l-5.065-.408a1.3,1.3,0,0,0-.207,2.6l3.871.312v5.6l-3.869.3a1.3,1.3,0,0,0-1.157.979,16.447,16.447,0,0,1-1.79,4.354,1.31,1.31,0,0,0,.127,1.513L110.4,279.3l-3.936,3.955-2.953-2.527A1.293,1.293,0,0,0,102,280.6a16.269,16.269,0,0,1-4.333,1.8,1.3,1.3,0,0,0-.975,1.162l-.3,3.888h-5.57l-.31-3.89a1.3,1.3,0,0,0-.973-1.16,16.317,16.317,0,0,1-4.325-1.8,1.293,1.293,0,0,0-1.505.128l-2.953,2.527L76.82,279.3l2.515-2.968a1.31,1.31,0,0,0,.127-1.513,16.456,16.456,0,0,1-1.8-4.354,1.3,1.3,0,0,0-1.156-.979l-3.86-.3v-5.6l3.862-.312a1.3,1.3,0,0,0-.208-2.6l-5.056.408a1.3,1.3,0,0,0-1.194,1.3v8.008a1.3,1.3,0,0,0,1.2,1.3l4.154.328a19.072,19.072,0,0,0,1.371,3.318l-2.7,3.192a1.309,1.309,0,0,0,.07,1.768l5.63,5.658a1.293,1.293,0,0,0,1.759.071L84.7,283.3A18.893,18.893,0,0,0,88,284.673l.334,4.185a1.3,1.3,0,0,0,1.294,1.2h7.968a1.3,1.3,0,0,0,1.294-1.2l.326-4.182a18.859,18.859,0,0,0,3.3-1.37l3.177,2.719a1.293,1.293,0,0,0,1.759-.071l5.63-5.658A1.309,1.309,0,0,0,113.149,278.526Z" transform="translate(-63.685 -230.058)"/><path class="b" d="M153.482,294.462a1.3,1.3,0,0,0-1.3,1.3,12.893,12.893,0,1,0,25.786,0,1.3,1.3,0,1,0-2.6,0,10.3,10.3,0,1,1-20.594,0A1.3,1.3,0,0,0,153.482,294.462Z" transform="translate(-135.158 -259.445)"/><path class="b" d="M201.108,303.332a7.555,7.555,0,0,0,7.528-7.565,1.3,1.3,0,1,0-2.6,0,4.928,4.928,0,1,1-9.855,0,1.3,1.3,0,1,0-2.6,0A7.551,7.551,0,0,0,201.108,303.332Z" transform="translate(-171.189 -259.445)"/><ellipse class="b" cx="1.298" cy="1.304" rx="1.298" ry="1.304" transform="translate(54.511 5.217)"/><ellipse class="b" cx="1.298" cy="1.304" rx="1.298" ry="1.304" transform="translate(44.128 2.609)"/><ellipse class="b" cx="1.298" cy="1.304" rx="1.298" ry="1.304" transform="translate(16.872 2.609)"/><ellipse class="b" cx="1.298" cy="1.304" rx="1.298" ry="1.304" transform="translate(1.298 15.652)"/><ellipse class="b" cx="1.298" cy="1.304" rx="1.298" ry="1.304" transform="translate(1.298 37.826)"/><ellipse class="b" cx="1.298" cy="1.304" rx="1.298" ry="1.304" transform="translate(49.319 54.783)"/><ellipse class="b" cx="1.298" cy="1.304" rx="1.298" ry="1.304" transform="translate(11.681 56.087)"/><path class="b" d="M51,50.058v3.333a1.3,1.3,0,0,0,1.3,1.3H64.123V56a1.3,1.3,0,0,0,1.3,1.3H88.638a1.3,1.3,0,0,0,1.3-1.3V54.7h11.825a1.3,1.3,0,0,0,1.3-1.3V50.058a7.4,7.4,0,0,0-4.01-6.579,5.047,5.047,0,1,0-7.7,0,7.4,7.4,0,0,0-2.177,1.7,9.612,9.612,0,0,0-6.54-5.577,7.931,7.931,0,1,0-11.208,0,9.612,9.612,0,0,0-6.54,5.576,7.4,7.4,0,0,0-2.177-1.7,5.047,5.047,0,1,0-7.7,0A7.4,7.4,0,0,0,51,50.058ZM95.2,37.739a2.464,2.464,0,0,1,0,4.927H95.2a2.464,2.464,0,0,1,0-4.927Zm-.5,7.536H95.7a4.776,4.776,0,0,1,4.759,4.783v2.029H99.021V50.565a1.3,1.3,0,1,0-2.6,0v1.522h-2.6V50.565a1.3,1.3,0,1,0-2.6,0v1.522h-1.3V50.058A4.776,4.776,0,0,1,94.7,45.275ZM77.03,28.609a5.362,5.362,0,1,1-5.336,5.362A5.355,5.355,0,0,1,77.03,28.609ZM66.719,48.942a6.991,6.991,0,0,1,6.965-7h6.691a6.991,6.991,0,0,1,6.965,7V54.7H83.447V52.3a1.3,1.3,0,1,0-2.6,0V54.7H73.064V52.3a1.3,1.3,0,1,0-2.6,0V54.7H66.719V48.942Zm-7.859-11.2a2.464,2.464,0,0,1,0,4.927h0a2.464,2.464,0,0,1,0-4.927ZM53.6,50.058a4.776,4.776,0,0,1,4.759-4.783h1.009a4.776,4.776,0,0,1,4.759,4.778v2.034H62.681V50.565a1.3,1.3,0,1,0-2.6,0v1.522h-2.6V50.565a1.3,1.3,0,1,0-2.6,0v1.522H53.6Z" transform="translate(-47.106 -26)"/><path class="b" d="M24.894,386a3.913,3.913,0,1,0,3.894,3.913A3.908,3.908,0,0,0,24.894,386Zm0,5.217a1.3,1.3,0,1,1,1.3-1.3A1.3,1.3,0,0,1,24.894,391.217Z" transform="translate(-21 -339.043)"/><path class="b" d="M425.543,356a4.565,4.565,0,1,0,4.543,4.565A4.559,4.559,0,0,0,425.543,356Zm0,6.522a1.957,1.957,0,1,1,1.947-1.957A1.954,1.954,0,0,1,425.543,362.522Z" transform="translate(-369.085 -312.957)"/></g></g></g></svg>