<svg xmlns="http://www.w3.org/2000/svg" width="100" height="100" viewBox="0 0 100 100"><defs><style>.a{fill:#ff9e1b;}.b{fill:#1c1000;}</style></defs><circle class="a" cx="50" cy="50" r="50"/><g transform="translate(15 14)"><g transform="translate(8 6)"><path class="b" d="M20.687,22.667h13.5A1.677,1.677,0,0,0,35.875,21V7.667A1.677,1.677,0,0,0,34.188,6h-13.5A1.677,1.677,0,0,0,19,7.667V21A1.677,1.677,0,0,0,20.687,22.667ZM22.375,9.333H32.5v10H22.375Z" transform="translate(-0.437 -6)"/><path class="b" d="M23.187,32H9.687A1.677,1.677,0,0,0,8,33.667V47a1.677,1.677,0,0,0,1.688,1.667h13.5A1.677,1.677,0,0,0,24.875,47V33.667A1.677,1.677,0,0,0,23.187,32ZM21.5,45.333H11.375v-10H21.5Z" transform="translate(-8 11.333)"/><path class="b" d="M45.188,32h-13.5A1.677,1.677,0,0,0,30,33.667V47a1.677,1.677,0,0,0,1.687,1.667h13.5A1.677,1.677,0,0,0,46.875,47V33.667A1.677,1.677,0,0,0,45.188,32ZM43.5,45.333H33.375v-10H43.5Z" transform="translate(7.125 11.333)"/><path class="b" d="M49.125,36.333a1.688,1.688,0,0,0,3.375,0V29.667A1.677,1.677,0,0,0,50.813,28H33.937V19.667a1.688,1.688,0,0,0-3.375,0V28H13.687A1.677,1.677,0,0,0,12,29.667v6.667a1.688,1.688,0,0,0,3.375,0v-5h33.75Z" transform="translate(-5.25 2)"/></g></g></svg>