<svg xmlns="http://www.w3.org/2000/svg" width="100" height="100" viewBox="0 0 100 100"><defs><style>.a{fill:#ff9e1b;}.b{fill:#1c1000;}</style></defs><circle class="a" cx="50" cy="50" r="50"/><g transform="translate(18 15)"><g transform="translate(2 2)"><path class="b" d="M25.818,15.636A6.818,6.818,0,1,0,19,8.818,6.818,6.818,0,0,0,25.818,15.636Zm0-10.909a4.091,4.091,0,1,1-4.091,4.091,4.091,4.091,0,0,1,4.091-4.091Z" transform="translate(4.182 -2)"/><path class="b" d="M26.545,13A9.545,9.545,0,0,0,17,22.545v4.091A1.364,1.364,0,0,0,18.364,28H34.727a1.364,1.364,0,0,0,1.364-1.364V22.545A9.545,9.545,0,0,0,26.545,13Zm6.818,12.273H19.727V22.545a6.818,6.818,0,0,1,13.636,0Z" transform="translate(3.455 2)"/><path class="b" d="M10.818,37.636A6.818,6.818,0,1,0,4,30.818,6.818,6.818,0,0,0,10.818,37.636Zm0-10.909a4.091,4.091,0,1,1-4.091,4.091,4.091,4.091,0,0,1,4.091-4.091Z" transform="translate(-1.273 6)"/><path class="b" d="M11.545,35A9.545,9.545,0,0,0,2,44.545v4.091A1.364,1.364,0,0,0,3.364,50H19.727a1.364,1.364,0,0,0,1.364-1.364V44.545A9.545,9.545,0,0,0,11.545,35Zm6.818,12.273H4.727V44.545a6.818,6.818,0,0,1,13.636,0Z" transform="translate(-2 10)"/><path class="b" d="M40.818,37.636A6.818,6.818,0,1,0,34,30.818,6.818,6.818,0,0,0,40.818,37.636Zm0-10.909a4.091,4.091,0,1,1-4.091,4.091A4.091,4.091,0,0,1,40.818,26.727Z" transform="translate(9.636 6)"/><path class="b" d="M41.545,35A9.545,9.545,0,0,0,32,44.545v4.091A1.364,1.364,0,0,0,33.364,50H49.727a1.364,1.364,0,0,0,1.364-1.364V44.545A9.545,9.545,0,0,0,41.545,35Zm6.818,12.273H34.727V44.545a6.818,6.818,0,0,1,13.636,0Z" transform="translate(8.909 10)"/><path class="b" d="M27.91,34.9V27.364a1.364,1.364,0,1,0-2.727,0V34.9l-7.691,6.409a1.365,1.365,0,1,0,1.745,2.1l7.309-6.1,7.309,6.1a1.365,1.365,0,1,0,1.745-2.1Z" transform="translate(3.454 6.727)"/></g></g></svg>